{
	"asset":{
		"generator":"Khronos glTF Blender I/O v4.3.47",
		"version":"2.0"
	},
	"extensionsUsed":[
		"KHR_materials_specular",
		"KHR_materials_ior"
	],
	"scene":0,
	"scenes":[
		{
			"name":"Scene",
			"nodes":[
				0
			]
		}
	],
	"nodes":[
		{
			"mesh":0,
			"name":"table-coffee",
			"translation":[
				9.8361177444458,
				0,
				135.63710021972656
			]
		}
	],
	"materials":[
		{
			"doubleSided":true,
			"emissiveFactor":[
				1,
				1,
				1
			],
			"emissiveTexture":{
				"index":0
			},
			"extensions":{
				"KHR_materials_specular":{
					"specularTexture":{
						"index":1
					}
				},
				"KHR_materials_ior":{
					"ior":1.4500000476837158
				}
			},
			"name":"LOWPOLY-COLORS",
			"pbrMetallicRoughness":{
				"baseColorTexture":{
					"index":2
				},
				"metallicFactor":0,
				"roughnessFactor":0.25797104835510254
			}
		}
	],
	"meshes":[
		{
			"name":"table-coffee",
			"primitives":[
				{
					"attributes":{
						"POSITION":0,
						"NORMAL":1,
						"TEXCOORD_0":2
					},
					"indices":3,
					"material":0
				}
			]
		}
	],
	"textures":[
		{
			"sampler":0,
			"source":0
		},
		{
			"sampler":0,
			"source":1
		},
		{
			"sampler":0,
			"source":2
		}
	],
	"images":[
		{
			"mimeType":"image/png",
			"name":"color-atlas-emission-night",
			"uri":"textures/color-atlas-emission-night.png"
		},
		{
			"mimeType":"image/png",
			"name":"color-atlas-specular",
			"uri":"textures/color-atlas-specular.png"
		},
		{
			"mimeType":"image/png",
			"name":"color-atlas-new2",
			"uri":"textures/color-atlas-new2.png"
		}
	],
	"accessors":[
		{
			"bufferView":0,
			"componentType":5126,
			"count":227,
			"max":[
				0.44999998807907104,
				0.4499998688697815,
				0.30000001192092896
			],
			"min":[
				-0.4513234496116638,
				-4.577636758540393e-08,
				-0.30000001192092896
			],
			"type":"VEC3"
		},
		{
			"bufferView":1,
			"componentType":5126,
			"count":227,
			"type":"VEC3"
		},
		{
			"bufferView":2,
			"componentType":5126,
			"count":227,
			"type":"VEC2"
		},
		{
			"bufferView":3,
			"componentType":5123,
			"count":384,
			"type":"SCALAR"
		}
	],
	"bufferViews":[
		{
			"buffer":0,
			"byteLength":2724,
			"byteOffset":0,
			"target":34962
		},
		{
			"buffer":0,
			"byteLength":2724,
			"byteOffset":2724,
			"target":34962
		},
		{
			"buffer":0,
			"byteLength":1816,
			"byteOffset":5448,
			"target":34962
		},
		{
			"buffer":0,
			"byteLength":768,
			"byteOffset":7264,
			"target":34963
		}
	],
	"samplers":[
		{
			"magFilter":9729,
			"minFilter":9987
		}
	],
	"buffers":[
		{
			"byteLength":8032,
			"uri":"staticmesh_coffeetable.bin"
		}
	]
}
